<mxfile host="Electron" modified="2024-06-26T09:27:42.721Z" agent="Mozilla/5.0 (Windows NT 10.0; Win64; x64) AppleWebKit/537.36 (KHTML, like Gecko) draw.io/24.6.1 Chrome/124.0.6367.207 Electron/30.0.6 Safari/537.36" etag="FoxJQq7trpNw64GC-93F" version="24.6.1" type="device">
  <diagram name="Страница — 1" id="_tgUnVWahCkvTzuhwSb7">
    <mxGraphModel dx="869" dy="512" grid="1" gridSize="10" guides="1" tooltips="1" connect="1" arrows="1" fold="1" page="1" pageScale="1" pageWidth="827" pageHeight="1169" math="0" shadow="0">
      <root>
        <mxCell id="0" />
        <mxCell id="1" parent="0" />
        <mxCell id="KYs1S1e0pf-8GjBk7WKy-5" value="glossary" style="shape=umlFrame;whiteSpace=wrap;html=1;pointerEvents=0;recursiveResize=0;container=1;collapsible=0;width=160;height=30;" vertex="1" parent="1">
          <mxGeometry x="80" y="80" width="240" height="150" as="geometry" />
        </mxCell>
        <mxCell id="KYs1S1e0pf-8GjBk7WKy-6" value="Корневая директория глоссария.&amp;nbsp;&lt;div&gt;&lt;br&gt;&lt;/div&gt;&lt;div&gt;&amp;nbsp;В ней выполняется подключение&lt;/div&gt;&lt;div&gt;&amp;nbsp;файлов,&amp;nbsp;&lt;span style=&quot;background-color: initial;&quot;&gt;соответсвующих буквам&lt;/span&gt;&lt;/div&gt;&lt;div&gt;&lt;span style=&quot;background-color: initial;&quot;&gt;&amp;nbsp;русского алфавита.&amp;nbsp;&lt;/span&gt;&lt;/div&gt;" style="text;html=1;align=left;verticalAlign=middle;resizable=0;points=[];autosize=1;strokeColor=none;fillColor=none;" vertex="1" parent="KYs1S1e0pf-8GjBk7WKy-5">
          <mxGeometry x="10" y="50" width="210" height="90" as="geometry" />
        </mxCell>
        <mxCell id="KYs1S1e0pf-8GjBk7WKy-20" value="" style="group" vertex="1" connectable="0" parent="1">
          <mxGeometry x="440" y="250" width="70" height="315" as="geometry" />
        </mxCell>
        <mxCell id="KYs1S1e0pf-8GjBk7WKy-9" value="Аа" style="shape=note2;boundedLbl=1;whiteSpace=wrap;html=1;size=25;verticalAlign=top;align=center;" vertex="1" parent="KYs1S1e0pf-8GjBk7WKy-20">
          <mxGeometry width="70" height="70" as="geometry" />
        </mxCell>
        <mxCell id="KYs1S1e0pf-8GjBk7WKy-12" value="Бб" style="shape=note2;boundedLbl=1;whiteSpace=wrap;html=1;size=25;verticalAlign=top;align=center;" vertex="1" parent="KYs1S1e0pf-8GjBk7WKy-20">
          <mxGeometry y="90" width="70" height="70" as="geometry" />
        </mxCell>
        <mxCell id="KYs1S1e0pf-8GjBk7WKy-19" value="" style="group" vertex="1" connectable="0" parent="KYs1S1e0pf-8GjBk7WKy-20">
          <mxGeometry y="180" width="70" height="135" as="geometry" />
        </mxCell>
        <mxCell id="KYs1S1e0pf-8GjBk7WKy-13" value="Яя" style="shape=note2;boundedLbl=1;whiteSpace=wrap;html=1;size=25;verticalAlign=top;align=center;" vertex="1" parent="KYs1S1e0pf-8GjBk7WKy-19">
          <mxGeometry y="65" width="70" height="70" as="geometry" />
        </mxCell>
        <mxCell id="KYs1S1e0pf-8GjBk7WKy-17" value="" style="group" vertex="1" connectable="0" parent="KYs1S1e0pf-8GjBk7WKy-19">
          <mxGeometry x="30" width="10" height="50" as="geometry" />
        </mxCell>
        <mxCell id="KYs1S1e0pf-8GjBk7WKy-14" value="" style="ellipse;" vertex="1" parent="KYs1S1e0pf-8GjBk7WKy-17">
          <mxGeometry width="10" height="10" as="geometry" />
        </mxCell>
        <mxCell id="KYs1S1e0pf-8GjBk7WKy-15" value="" style="ellipse;" vertex="1" parent="KYs1S1e0pf-8GjBk7WKy-17">
          <mxGeometry y="20" width="10" height="10" as="geometry" />
        </mxCell>
        <mxCell id="KYs1S1e0pf-8GjBk7WKy-16" value="" style="ellipse;" vertex="1" parent="KYs1S1e0pf-8GjBk7WKy-17">
          <mxGeometry y="40" width="10" height="10" as="geometry" />
        </mxCell>
        <mxCell id="KYs1S1e0pf-8GjBk7WKy-21" style="edgeStyle=orthogonalEdgeStyle;rounded=0;orthogonalLoop=1;jettySize=auto;html=1;entryX=0;entryY=0;entryDx=22.5;entryDy=0;entryPerimeter=0;" edge="1" parent="1" source="KYs1S1e0pf-8GjBk7WKy-5" target="KYs1S1e0pf-8GjBk7WKy-9">
          <mxGeometry relative="1" as="geometry" />
        </mxCell>
        <mxCell id="KYs1S1e0pf-8GjBk7WKy-22" value="Термины, начинающиеся на Аа" style="rounded=0;whiteSpace=wrap;html=1;" vertex="1" parent="1">
          <mxGeometry x="600" y="310" width="120" height="60" as="geometry" />
        </mxCell>
        <mxCell id="KYs1S1e0pf-8GjBk7WKy-23" value="Термины, начинающиеся на Бб" style="rounded=0;whiteSpace=wrap;html=1;" vertex="1" parent="1">
          <mxGeometry x="600" y="410" width="120" height="60" as="geometry" />
        </mxCell>
        <mxCell id="KYs1S1e0pf-8GjBk7WKy-24" value="Термины, начинающиеся на Яя" style="rounded=0;whiteSpace=wrap;html=1;" vertex="1" parent="1">
          <mxGeometry x="600" y="565" width="120" height="60" as="geometry" />
        </mxCell>
        <mxCell id="KYs1S1e0pf-8GjBk7WKy-25" style="edgeStyle=orthogonalEdgeStyle;rounded=0;orthogonalLoop=1;jettySize=auto;html=1;entryX=0.5;entryY=0;entryDx=0;entryDy=0;" edge="1" parent="1" source="KYs1S1e0pf-8GjBk7WKy-9" target="KYs1S1e0pf-8GjBk7WKy-22">
          <mxGeometry relative="1" as="geometry" />
        </mxCell>
        <mxCell id="KYs1S1e0pf-8GjBk7WKy-26" style="edgeStyle=orthogonalEdgeStyle;rounded=0;orthogonalLoop=1;jettySize=auto;html=1;entryX=0.5;entryY=0;entryDx=0;entryDy=0;" edge="1" parent="1" source="KYs1S1e0pf-8GjBk7WKy-12" target="KYs1S1e0pf-8GjBk7WKy-23">
          <mxGeometry relative="1" as="geometry" />
        </mxCell>
        <mxCell id="KYs1S1e0pf-8GjBk7WKy-27" style="edgeStyle=orthogonalEdgeStyle;rounded=0;orthogonalLoop=1;jettySize=auto;html=1;entryX=0.5;entryY=0;entryDx=0;entryDy=0;" edge="1" parent="1" source="KYs1S1e0pf-8GjBk7WKy-13" target="KYs1S1e0pf-8GjBk7WKy-24">
          <mxGeometry relative="1" as="geometry" />
        </mxCell>
      </root>
    </mxGraphModel>
  </diagram>
</mxfile>
